<?xml version="1.0" encoding="UTF-8" standalone="no"?>
<!-- Created with Inkscape (http://www.inkscape.org/) -->
<svg id="svg6530" xmlns:rdf="http://www.w3.org/1999/02/22-rdf-syntax-ns#" xmlns:xlink="http://www.w3.org/1999/xlink" version="1.1" height="22" viewBox="0 0 22 22" width="22" xmlns="http://www.w3.org/2000/svg" xmlns:cc="http://creativecommons.org/ns#" xmlns:dc="http://purl.org/dc/elements/1.1/">
 <metadata id="metadata6535">
  <rdf:RDF>
   <cc:Work rdf:about="">
    <dc:format>image/svg+xml</dc:format>
    <dc:type rdf:resource="http://purl.org/dc/dcmitype/StillImage"/>
    <dc:title/>
   </cc:Work>
  </rdf:RDF>
 </metadata>
 <g id="layer1" transform="translate(-129 -551.36)">
  <rect id="rect10247" style="color:#bebebe;fill:none" transform="rotate(-90)" height="22" width="22" y="129" x="-573.36"/>
  <path id="path6575" style="opacity:.35;fill:#dbdee0" d="m134 556.36s-1 0-1 1v9c0 1 1 1 1 1h2l1 1h6v-3l-1 1h-4l-1-1h-2v-7h10v1h2v-2c0-1-1-1-1-1h-12z"/>
  <path id="path6053-9" style="color:#444444;fill:#e74c3c" d="m144 560.36-0.00001 4 0.25 2h1.5l0.25-2 0.00001-4zm0 7v2h2v-2z" class="error"/>
 </g>
</svg>
